#!OML:ASF E:\motion texture\Top Level 1\Subject 1\Session 1\male.ASF
:FULLY-SPECIFIED
:DEGREES
143
root 10.6764 17.719 5.61921 85.66 -87.5878 -80.0006
lowerback 0.339607 0.055545 1.87025
upperback -4.2933 0.155124 5.76426
thorax -4.65144 0.0475883 4.95315
lowerneck -14.8186 2.1656 1.54336
upperneck 16.4631 1.61507 4.60591
head 7.49061 1.2675 1.42544
rclavicle -4.67144e-015 1.59028e-014
rhumerus 5.20763 27.5425 -63.5251
rradius 82.4377
rwrist 13.7758
rhand -26.4759 -24.3892
rfingers 7.12502
rthumb 0.0860611 -54.3689
lclavicle -4.67144e-015 1.59028e-014
lhumerus 47.4024 -56.0691 46.2444
lradius 98.4726
lwrist -16.0167
lhand -22.5409 23.4598
lfingers 7.12502
lthumb 3.88648 53.4042
rfemur -28.8364 1.58452 20.3814
rtibia 27.6976
rfoot -1.46152 -5.21035
rtoes 18.8653
lfemur -3.1579 -2.59466 -14.2669
ltibia 45.5267
lfoot 7.27563 -3.40488
ltoes -20.2761
144
root 10.5155 17.7453 5.59168 86.7656 -87.4987 -81.1534
lowerback 0.287521 0.216381 2.04145
upperback -4.43607 0.374804 5.78419
thorax -4.78709 0.149561 4.87082
lowerneck -15.0007 2.27512 1.55569
upperneck 16.6355 1.75278 4.59257
head 7.57705 1.33789 1.43929
rclavicle 3.97569e-016 1.11319e-014
rhumerus 8.36709 33.3948 -59.2583
rradius 83.2588
rwrist 15.9509
rhand -26.5314 -21.4173
rfingers 7.12502
rthumb 0.0324897 -51.397
lclavicle 3.97569e-016 1.11319e-014
lhumerus 54.827 -56.3012 38.5484
lradius 99.8263
lwrist -17.458
lhand -22.9503 22.2544
lfingers 7.12502
lthumb 3.49108 52.2056
rfemur -28.2206 1.63791 20.6626
rtibia 27.8292
rfoot -2.08953 -5.10634
rtoes 19.0804
lfemur -4.05671 -2.27273 -13.9294
ltibia 47.1751
lfoot 8.84277 -3.41259
ltoes -17.6552
145
root 10.3547 17.7719 5.5647 87.3824 -87.4188 -81.8385
lowerback 0.255541 0.353804 2.19141
upperback -4.56996 0.563649 5.81963
thorax -4.92244 0.236823 4.81819
lowerneck -15.1489 2.26176 1.42361
upperneck 16.7654 1.75149 4.62
head 7.64379 1.33551 1.47422
rclavicle 1.59028e-014 -8.26944e-014
rhumerus 12.1847 38.6764 -54.1006
rradius 84.2831
rwrist 18.0538
rhand -26.4982 -18.6411
rfingers 7.12502
rthumb 0.0645365 -48.6209
lclavicle 1.59028e-014 -8.26944e-014
lhumerus 61.0261 -55.8046 31.8361
lradius 101.074
lwrist -19.7328
lhand -23.8283 20.5581
lfingers 7.12502
lthumb 2.64317 50.5215
rfemur -27.5412 1.66679 20.9223
rtibia 27.8851
rfoot -2.69702 -5.01493
rtoes 19.3387
lfemur -4.93097 -1.97644 -13.6274
ltibia 48.7817
lfoot 9.83453 -3.19873
ltoes -15.934
146
root 10.1943 17.7988 5.53792 87.6047 -87.3258 -82.1457
lowerback 0.239698 0.478646 2.35524
upperback -4.70278 0.737019 5.86462
thorax -5.06441 0.31545 4.76847
lowerneck -15.2423 2.11089 1.12483
upperneck 16.8492 1.58881 4.72905
head 7.6862 1.25175 1.54425
rclavicle -6.26172e-015 -1.27222e-014
rhumerus 16.5639 43.1523 -48.1734
rradius 85.5412
rwrist 19.8542
rhand -26.2446 -15.9977
rfingers 7.12502
rthumb 0.309547 -45.9772
lclavicle -6.26172e-015 -1.27222e-014
lhumerus 65.7414 -54.8532 26.3636
lradius 102.177
lwrist -22.8165
lhand -25.2786 18.6724
lfingers 7.12502
lthumb 1.24251 48.6485
rfemur -26.8068 1.69759 21.1882
rtibia 27.8711
rfoot -3.28257 -4.9553
rtoes 19.6198
lfemur -5.78576 -1.69977 -13.3259
ltibia 50.3265
lfoot 10.2229 -2.79396
ltoes -15.1825
147
root 10.034 17.8257 5.51123 87.3128 -87.2301 -81.9548
lowerback 0.225658 0.598712 2.53539
upperback -4.8322 0.904549 5.90149
thorax -5.20255 0.389924 4.70093
lowerneck -15.2878 1.81235 0.677865
upperneck 16.8986 1.24333 4.9275
head 7.71175 1.07848 1.64693
rclavicle 4.77083e-015 -6.36111e-014
rhumerus 21.2672 46.6505 -41.7705
rradius 86.9614
rwrist 21.2059
rhand -25.7133 -13.3721
rfingers 7.12502
rthumb 0.82268 -43.3502
lclavicle 4.77083e-015 -6.36111e-014
lhumerus 68.9873 -53.679 22.1274
lradius 103.164
lwrist -26.4354
lhand -27.1729 17.1394
lfingers 7.12502
lthumb -0.587096 47.1184
rfemur -26.0148 1.73151 21.4504
rtibia 27.7828
rfoot -3.84083 -4.934
rtoes 19.8881
lfemur -6.61689 -1.44727 -13.036
ltibia 51.7849
lfoot 10.0662 -2.26248
ltoes -15.1731
